<?xml version="1.0" encoding="UTF-8"?>
<!DOCTYPE svg
PUBLIC "-//W3C//DTD SVG 1.1//EN"
       "http://www.w3.org/Graphics/SVG/1.1/DTD/svg11.dtd">
<svg viewBox="392 10 1522 734" width="1130px" height="724px" xmlns="http://www.w3.org/2000/svg" version="1.1">
   <line x1="923" y1="211" x2="933" y2="211" style="stroke:#bbb;stroke-width:1;"/>
   <line x1="1091" y1="169" x2="1101" y2="169" style="stroke:#bbb;stroke-width:1;"/>
   <line x1="933" y1="211" x2="1091" y2="169" style="stroke:#bbb;stroke-width:1;"/>
   <line x1="930,5" y1="211" x2="926,96446609407" y2="214,53553390593" style="stroke:#bbb;stroke-width:2;"/>
   <line x1="930,5" y1="211" x2="926,96446609407" y2="207,46446609407" style="stroke:#bbb;stroke-width:2;"/>
   <line x1="1096" y1="169" x2="1092,4644660941" y2="172,53553390593" style="stroke:#bbb;stroke-width:2;"/>
   <line x1="1096" y1="169" x2="1092,4644660941" y2="165,46446609407" style="stroke:#bbb;stroke-width:2;"/>
   <line x1="791" y1="191" x2="781" y2="191" style="stroke:#bbb;stroke-width:1;"/>
   <line x1="576" y1="193" x2="566" y2="193" style="stroke:#bbb;stroke-width:1;"/>
   <line x1="781" y1="191" x2="576" y2="193" style="stroke:#bbb;stroke-width:1;"/>
   <line x1="783,5" y1="191" x2="787,03553390593" y2="194,53553390593" style="stroke:#bbb;stroke-width:2;"/>
   <line x1="783,5" y1="191" x2="787,03553390593" y2="187,46446609407" style="stroke:#bbb;stroke-width:2;"/>
   <line x1="571" y1="193" x2="574,53553390593" y2="196,53553390593" style="stroke:#bbb;stroke-width:2;"/>
   <line x1="571" y1="193" x2="574,53553390593" y2="189,46446609407" style="stroke:#bbb;stroke-width:2;"/>
   <line x1="560" y1="389" x2="570" y2="389" style="stroke:#cb0;stroke-width:1;"/>
   <line x1="789" y1="58" x2="799" y2="58" style="stroke:#cb0;stroke-width:1;"/>
   <line x1="570" y1="389" x2="789" y2="58" style="stroke:#cb0;stroke-width:1;"/>
   <line x1="567,5" y1="389" x2="563,96446609407" y2="392,53553390593" style="stroke:#cb0;stroke-width:2;"/>
   <line x1="567,5" y1="389" x2="563,96446609407" y2="385,46446609407" style="stroke:#cb0;stroke-width:2;"/>
   <line x1="794" y1="58" x2="790,46446609407" y2="61,535533905933" style="stroke:#cb0;stroke-width:2;"/>
   <line x1="794" y1="58" x2="790,46446609407" y2="54,464466094067" style="stroke:#cb0;stroke-width:2;"/>
   <line x1="560" y1="529" x2="570" y2="529" style="stroke:#0bf;stroke-width:1;"/>
   <line x1="1091" y1="169" x2="1101" y2="169" style="stroke:#0bf;stroke-width:1;"/>
   <line x1="570" y1="529" x2="1091" y2="169" style="stroke:#0bf;stroke-width:1;"/>
   <line x1="567,5" y1="529" x2="563,96446609407" y2="532,53553390593" style="stroke:#0bf;stroke-width:2;"/>
   <line x1="567,5" y1="529" x2="563,96446609407" y2="525,46446609407" style="stroke:#0bf;stroke-width:2;"/>
   <line x1="1096" y1="169" x2="1092,4644660941" y2="172,53553390593" style="stroke:#0bf;stroke-width:2;"/>
   <line x1="1096" y1="169" x2="1092,4644660941" y2="165,46446609407" style="stroke:#0bf;stroke-width:2;"/>
   <line x1="560" y1="569" x2="570" y2="569" style="stroke:#c00;stroke-width:1;"/>
   <line x1="1091" y1="169" x2="1101" y2="169" style="stroke:#c00;stroke-width:1;"/>
   <line x1="570" y1="569" x2="1091" y2="169" style="stroke:#c00;stroke-width:1;"/>
   <line x1="567,5" y1="569" x2="563,96446609407" y2="572,53553390593" style="stroke:#c00;stroke-width:2;"/>
   <line x1="567,5" y1="569" x2="563,96446609407" y2="565,46446609407" style="stroke:#c00;stroke-width:2;"/>
   <line x1="1096" y1="169" x2="1092,4644660941" y2="172,53553390593" style="stroke:#c00;stroke-width:2;"/>
   <line x1="1096" y1="169" x2="1092,4644660941" y2="165,46446609407" style="stroke:#c00;stroke-width:2;"/>
   <line x1="560" y1="609" x2="570" y2="609" style="stroke:#cb0;stroke-width:1;"/>
   <line x1="1091" y1="169" x2="1101" y2="169" style="stroke:#cb0;stroke-width:1;"/>
   <line x1="570" y1="609" x2="1091" y2="169" style="stroke:#cb0;stroke-width:1;"/>
   <line x1="567,5" y1="609" x2="563,96446609407" y2="612,53553390593" style="stroke:#cb0;stroke-width:2;"/>
   <line x1="567,5" y1="609" x2="563,96446609407" y2="605,46446609407" style="stroke:#cb0;stroke-width:2;"/>
   <line x1="1096" y1="169" x2="1092,4644660941" y2="172,53553390593" style="stroke:#cb0;stroke-width:2;"/>
   <line x1="1096" y1="169" x2="1092,4644660941" y2="165,46446609407" style="stroke:#cb0;stroke-width:2;"/>
   <line x1="407" y1="709" x2="397" y2="709" style="stroke:#b0b;stroke-width:1;"/>
   <line x1="397" y1="369" x2="407" y2="369" style="stroke:#b0b;stroke-width:1;"/>
   <line x1="397" y1="709" x2="397" y2="369" style="stroke:#b0b;stroke-width:1;"/>
   <line x1="399,5" y1="709" x2="403,03553390593" y2="712,53553390593" style="stroke:#b0b;stroke-width:2;"/>
   <line x1="399,5" y1="709" x2="403,03553390593" y2="705,46446609407" style="stroke:#b0b;stroke-width:2;"/>
   <line x1="402" y1="369" x2="398,46446609407" y2="372,53553390593" style="stroke:#b0b;stroke-width:2;"/>
   <line x1="402" y1="369" x2="398,46446609407" y2="365,46446609407" style="stroke:#b0b;stroke-width:2;"/>
   <line x1="1075" y1="484" x2="1065" y2="484" style="stroke:#c00;stroke-width:1;"/>
   <line x1="570" y1="369" x2="560" y2="369" style="stroke:#c00;stroke-width:1;"/>
   <line x1="1065" y1="484" x2="570" y2="369" style="stroke:#c00;stroke-width:1;"/>
   <line x1="1067,5" y1="484" x2="1071,0355339059" y2="487,53553390593" style="stroke:#c00;stroke-width:2;"/>
   <line x1="1067,5" y1="484" x2="1071,0355339059" y2="480,46446609407" style="stroke:#c00;stroke-width:2;"/>
   <line x1="565" y1="369" x2="568,53553390593" y2="372,53553390593" style="stroke:#c00;stroke-width:2;"/>
   <line x1="565" y1="369" x2="568,53553390593" y2="365,46446609407" style="stroke:#c00;stroke-width:2;"/>
   <line x1="1075" y1="564" x2="1065" y2="564" style="stroke:#bbb;stroke-width:1;"/>
   <line x1="1065" y1="464" x2="1075" y2="464" style="stroke:#bbb;stroke-width:1;"/>
   <line x1="1065" y1="564" x2="1065" y2="464" style="stroke:#bbb;stroke-width:1;"/>
   <line x1="1067,5" y1="564" x2="1071,0355339059" y2="567,53553390593" style="stroke:#bbb;stroke-width:2;"/>
   <line x1="1067,5" y1="564" x2="1071,0355339059" y2="560,46446609407" style="stroke:#bbb;stroke-width:2;"/>
   <line x1="1070" y1="464" x2="1066,4644660941" y2="467,53553390593" style="stroke:#bbb;stroke-width:2;"/>
   <line x1="1070" y1="464" x2="1066,4644660941" y2="460,46446609407" style="stroke:#bbb;stroke-width:2;"/>
   <line x1="1210" y1="504" x2="1220" y2="504" style="stroke:#b0b;stroke-width:1;"/>
   <line x1="1380" y1="514" x2="1390" y2="514" style="stroke:#b0b;stroke-width:1;"/>
   <line x1="1220" y1="504" x2="1380" y2="514" style="stroke:#b0b;stroke-width:1;"/>
   <line x1="1217,5" y1="504" x2="1213,9644660941" y2="507,53553390593" style="stroke:#b0b;stroke-width:2;"/>
   <line x1="1217,5" y1="504" x2="1213,9644660941" y2="500,46446609407" style="stroke:#b0b;stroke-width:2;"/>
   <line x1="1385" y1="514" x2="1381,4644660941" y2="517,53553390593" style="stroke:#b0b;stroke-width:2;"/>
   <line x1="1385" y1="514" x2="1381,4644660941" y2="510,46446609407" style="stroke:#b0b;stroke-width:2;"/>
   <line x1="1386" y1="345" x2="1376" y2="345" style="stroke:#333;stroke-width:1;"/>
   <line x1="1220" y1="464" x2="1210" y2="464" style="stroke:#333;stroke-width:1;"/>
   <line x1="1376" y1="345" x2="1220" y2="464" style="stroke:#333;stroke-width:1;"/>
   <line x1="1378,5" y1="345" x2="1382,0355339059" y2="348,53553390593" style="stroke:#333;stroke-width:2;"/>
   <line x1="1378,5" y1="345" x2="1382,0355339059" y2="341,46446609407" style="stroke:#333;stroke-width:2;"/>
   <line x1="1215" y1="464" x2="1218,5355339059" y2="467,53553390593" style="stroke:#333;stroke-width:2;"/>
   <line x1="1215" y1="464" x2="1218,5355339059" y2="460,46446609407" style="stroke:#333;stroke-width:2;"/>
   <line x1="1386" y1="365" x2="1376" y2="365" style="stroke:#333;stroke-width:1;"/>
   <line x1="1220" y1="464" x2="1210" y2="464" style="stroke:#333;stroke-width:1;"/>
   <line x1="1376" y1="365" x2="1220" y2="464" style="stroke:#333;stroke-width:1;"/>
   <line x1="1378,5" y1="365" x2="1382,0355339059" y2="368,53553390593" style="stroke:#333;stroke-width:2;"/>
   <line x1="1378,5" y1="365" x2="1382,0355339059" y2="361,46446609407" style="stroke:#333;stroke-width:2;"/>
   <line x1="1215" y1="464" x2="1218,5355339059" y2="467,53553390593" style="stroke:#333;stroke-width:2;"/>
   <line x1="1215" y1="464" x2="1218,5355339059" y2="460,46446609407" style="stroke:#333;stroke-width:2;"/>
   <line x1="1386" y1="385" x2="1376" y2="385" style="stroke:#333;stroke-width:1;"/>
   <line x1="1363" y1="204" x2="1373" y2="204" style="stroke:#333;stroke-width:1;"/>
   <line x1="1376" y1="385" x2="1363" y2="204" style="stroke:#333;stroke-width:1;"/>
   <line x1="1378,5" y1="385" x2="1382,0355339059" y2="388,53553390593" style="stroke:#333;stroke-width:2;"/>
   <line x1="1378,5" y1="385" x2="1382,0355339059" y2="381,46446609407" style="stroke:#333;stroke-width:2;"/>
   <line x1="1368" y1="204" x2="1364,4644660941" y2="207,53553390593" style="stroke:#333;stroke-width:2;"/>
   <line x1="1368" y1="204" x2="1364,4644660941" y2="200,46446609407" style="stroke:#333;stroke-width:2;"/>
   <line x1="793" y1="542" x2="783" y2="542" style="stroke:#0b0;stroke-width:1;"/>
   <line x1="570" y1="369" x2="560" y2="369" style="stroke:#0b0;stroke-width:1;"/>
   <line x1="783" y1="542" x2="570" y2="369" style="stroke:#0b0;stroke-width:1;"/>
   <line x1="785,5" y1="542" x2="789,03553390593" y2="545,53553390593" style="stroke:#0b0;stroke-width:2;"/>
   <line x1="785,5" y1="542" x2="789,03553390593" y2="538,46446609407" style="stroke:#0b0;stroke-width:2;"/>
   <line x1="565" y1="369" x2="568,53553390593" y2="372,53553390593" style="stroke:#0b0;stroke-width:2;"/>
   <line x1="565" y1="369" x2="568,53553390593" y2="365,46446609407" style="stroke:#0b0;stroke-width:2;"/>
   <line x1="891" y1="562" x2="901" y2="562" style="stroke:#333;stroke-width:1;"/>
   <line x1="1091" y1="169" x2="1101" y2="169" style="stroke:#333;stroke-width:1;"/>
   <line x1="901" y1="562" x2="1091" y2="169" style="stroke:#333;stroke-width:1;"/>
   <line x1="898,5" y1="562" x2="894,96446609407" y2="565,53553390593" style="stroke:#333;stroke-width:2;"/>
   <line x1="898,5" y1="562" x2="894,96446609407" y2="558,46446609407" style="stroke:#333;stroke-width:2;"/>
   <line x1="1096" y1="169" x2="1092,4644660941" y2="172,53553390593" style="stroke:#333;stroke-width:2;"/>
   <line x1="1096" y1="169" x2="1092,4644660941" y2="165,46446609407" style="stroke:#333;stroke-width:2;"/>
   <line x1="799" y1="98" x2="789" y2="98" style="stroke:#b0b;stroke-width:1;"/>
   <line x1="789" y1="58" x2="799" y2="58" style="stroke:#b0b;stroke-width:1;"/>
   <line x1="789" y1="98" x2="789" y2="58" style="stroke:#b0b;stroke-width:1;"/>
   <line x1="791,5" y1="98" x2="795,03553390593" y2="101,53553390593" style="stroke:#b0b;stroke-width:2;"/>
   <line x1="791,5" y1="98" x2="795,03553390593" y2="94,464466094067" style="stroke:#b0b;stroke-width:2;"/>
   <line x1="794" y1="58" x2="790,46446609407" y2="61,535533905933" style="stroke:#b0b;stroke-width:2;"/>
   <line x1="794" y1="58" x2="790,46446609407" y2="54,464466094067" style="stroke:#b0b;stroke-width:2;"/>
   <line x1="457" y1="82" x2="447" y2="82" style="stroke:#cb0;stroke-width:1;"/>
   <line x1="457" y1="193" x2="467" y2="193" style="stroke:#cb0;stroke-width:1;"/>
   <line x1="447" y1="82" x2="457" y2="193" style="stroke:#cb0;stroke-width:1;"/>
   <line x1="449,5" y1="82" x2="453,03553390593" y2="85,535533905933" style="stroke:#cb0;stroke-width:2;"/>
   <line x1="449,5" y1="82" x2="453,03553390593" y2="78,464466094067" style="stroke:#cb0;stroke-width:2;"/>
   <line x1="462" y1="193" x2="458,46446609407" y2="196,53553390593" style="stroke:#cb0;stroke-width:2;"/>
   <line x1="462" y1="193" x2="458,46446609407" y2="189,46446609407" style="stroke:#cb0;stroke-width:2;"/>
   <line x1="638" y1="62" x2="648" y2="62" style="stroke:#0bf;stroke-width:1;"/>
   <line x1="789" y1="58" x2="799" y2="58" style="stroke:#0bf;stroke-width:1;"/>
   <line x1="648" y1="62" x2="789" y2="58" style="stroke:#0bf;stroke-width:1;"/>
   <line x1="645,5" y1="62" x2="641,96446609407" y2="65,535533905933" style="stroke:#0bf;stroke-width:2;"/>
   <line x1="645,5" y1="62" x2="641,96446609407" y2="58,464466094067" style="stroke:#0bf;stroke-width:2;"/>
   <line x1="794" y1="58" x2="790,46446609407" y2="61,535533905933" style="stroke:#0bf;stroke-width:2;"/>
   <line x1="794" y1="58" x2="790,46446609407" y2="54,464466094067" style="stroke:#0bf;stroke-width:2;"/>
   <line x1="1079" y1="75" x2="1069" y2="75" style="stroke:#bbb;stroke-width:1;"/>
   <line x1="1091" y1="169" x2="1101" y2="169" style="stroke:#bbb;stroke-width:1;"/>
   <line x1="1069" y1="75" x2="1091" y2="169" style="stroke:#bbb;stroke-width:1;"/>
   <line x1="1071,5" y1="75" x2="1075,0355339059" y2="78,535533905933" style="stroke:#bbb;stroke-width:2;"/>
   <line x1="1071,5" y1="75" x2="1075,0355339059" y2="71,464466094067" style="stroke:#bbb;stroke-width:2;"/>
   <line x1="1096" y1="169" x2="1092,4644660941" y2="172,53553390593" style="stroke:#bbb;stroke-width:2;"/>
   <line x1="1096" y1="169" x2="1092,4644660941" y2="165,46446609407" style="stroke:#bbb;stroke-width:2;"/>
   <line x1="1079" y1="55" x2="1069" y2="55" style="stroke:#b0b;stroke-width:1;"/>
   <line x1="913" y1="58" x2="903" y2="58" style="stroke:#b0b;stroke-width:1;"/>
   <line x1="1069" y1="55" x2="913" y2="58" style="stroke:#b0b;stroke-width:1;"/>
   <line x1="1071,5" y1="55" x2="1075,0355339059" y2="58,535533905933" style="stroke:#b0b;stroke-width:2;"/>
   <line x1="1071,5" y1="55" x2="1075,0355339059" y2="51,464466094067" style="stroke:#b0b;stroke-width:2;"/>
   <line x1="908" y1="58" x2="911,53553390593" y2="61,535533905933" style="stroke:#b0b;stroke-width:2;"/>
   <line x1="908" y1="58" x2="911,53553390593" y2="54,464466094067" style="stroke:#b0b;stroke-width:2;"/>
   <rect width="99" height="20" x="467" y="163" style="fill:#007;stroke:black;"/>
   <text width="99" height="20" x="472" y="177" style="fill:#fff;" font-family="Arial" font-size="16px"> accessgroup</text>
   <rect width="99" height="20" x="467" y="183" style="fill:#aea;stroke:black;"/>
   <text width="99" height="20" x="472" y="197" style="fill:black;" font-family="Arial" font-size="16px">id</text>
   <rect width="99" height="20" x="467" y="203" style="fill:none;stroke:black;"/>
   <text width="99" height="20" x="472" y="217" style="fill:black;" font-family="Arial" font-size="16px">name</text>
   <rect width="132" height="20" x="791" y="161" style="fill:#007;stroke:black;"/>
   <text width="132" height="20" x="796" y="175" style="fill:#fff;" font-family="Arial" font-size="16px"> accessgroup_user</text>
   <rect width="132" height="20" x="791" y="181" style="fill:#aea;stroke:black;"/>
   <text width="132" height="20" x="796" y="195" style="fill:black;" font-family="Arial" font-size="16px">accessgroup_id</text>
   <rect width="132" height="20" x="791" y="201" style="fill:#aea;stroke:black;"/>
   <text width="132" height="20" x="796" y="215" style="fill:black;" font-family="Arial" font-size="16px">user_id</text>
   <rect width="153" height="20" x="407" y="339" style="fill:#007;stroke:black;"/>
   <text width="153" height="20" x="412" y="353" style="fill:#fff;" font-family="Arial" font-size="16px"> document</text>
   <rect width="153" height="20" x="407" y="359" style="fill:#aea;stroke:black;"/>
   <text width="153" height="20" x="412" y="373" style="fill:black;" font-family="Arial" font-size="16px">id</text>
   <rect width="153" height="20" x="407" y="379" style="fill:none;stroke:black;"/>
   <text width="153" height="20" x="412" y="393" style="fill:black;" font-family="Arial" font-size="16px">workspace_id</text>
   <rect width="153" height="20" x="407" y="399" style="fill:none;stroke:black;"/>
   <text width="153" height="20" x="412" y="413" style="fill:black;" font-family="Arial" font-size="16px">internal_identifier</text>
   <rect width="153" height="20" x="407" y="419" style="fill:none;stroke:black;"/>
   <text width="153" height="20" x="412" y="433" style="fill:black;" font-family="Arial" font-size="16px">external_identifier</text>
   <rect width="153" height="20" x="407" y="439" style="fill:none;stroke:black;"/>
   <text width="153" height="20" x="412" y="453" style="fill:black;" font-family="Arial" font-size="16px">name</text>
   <rect width="153" height="20" x="407" y="459" style="fill:none;stroke:black;"/>
   <text width="153" height="20" x="412" y="473" style="fill:black;" font-family="Arial" font-size="16px">short_name</text>
   <rect width="153" height="20" x="407" y="479" style="fill:none;stroke:black;"/>
   <text width="153" height="20" x="412" y="493" style="fill:black;" font-family="Arial" font-size="16px">description</text>
   <rect width="153" height="20" x="407" y="499" style="fill:none;stroke:black;"/>
   <text width="153" height="20" x="412" y="513" style="fill:black;" font-family="Arial" font-size="16px">confidentiality</text>
   <rect width="153" height="20" x="407" y="519" style="fill:none;stroke:black;"/>
   <text width="153" height="20" x="412" y="533" style="fill:black;" font-family="Arial" font-size="16px">author_id</text>
   <rect width="153" height="20" x="407" y="539" style="fill:none;stroke:black;"/>
   <text width="153" height="20" x="412" y="553" style="fill:black;" font-family="Arial" font-size="16px">language_id</text>
   <rect width="153" height="20" x="407" y="559" style="fill:none;stroke:black;"/>
   <text width="153" height="20" x="412" y="573" style="fill:black;" font-family="Arial" font-size="16px">approver_id</text>
   <rect width="153" height="20" x="407" y="579" style="fill:none;stroke:black;"/>
   <text width="153" height="20" x="412" y="593" style="fill:black;" font-family="Arial" font-size="16px">reviewer_text</text>
   <rect width="153" height="20" x="407" y="599" style="fill:none;stroke:black;"/>
   <text width="153" height="20" x="412" y="613" style="fill:black;" font-family="Arial" font-size="16px">last_modified_by_id</text>
   <rect width="153" height="20" x="407" y="619" style="fill:none;stroke:black;"/>
   <text width="153" height="20" x="412" y="633" style="fill:black;" font-family="Arial" font-size="16px">last_modified_on</text>
   <rect width="153" height="20" x="407" y="639" style="fill:none;stroke:black;"/>
   <text width="153" height="20" x="412" y="653" style="fill:black;" font-family="Arial" font-size="16px">baseline_major</text>
   <rect width="153" height="20" x="407" y="659" style="fill:none;stroke:black;"/>
   <text width="153" height="20" x="412" y="673" style="fill:black;" font-family="Arial" font-size="16px">baseline_minor</text>
   <rect width="153" height="20" x="407" y="679" style="fill:none;stroke:black;"/>
   <text width="153" height="20" x="412" y="693" style="fill:black;" font-family="Arial" font-size="16px">baseline_review</text>
   <rect width="153" height="20" x="407" y="699" style="fill:none;stroke:black;"/>
   <text width="153" height="20" x="412" y="713" style="fill:black;" font-family="Arial" font-size="16px">previous_baseline_id</text>
   <rect width="135" height="20" x="1075" y="434" style="fill:#007;stroke:black;"/>
   <text width="135" height="20" x="1080" y="448" style="fill:#fff;" font-family="Arial" font-size="16px"> element</text>
   <rect width="135" height="20" x="1075" y="454" style="fill:#aea;stroke:black;"/>
   <text width="135" height="20" x="1080" y="468" style="fill:black;" font-family="Arial" font-size="16px">id</text>
   <rect width="135" height="20" x="1075" y="474" style="fill:none;stroke:black;"/>
   <text width="135" height="20" x="1080" y="488" style="fill:black;" font-family="Arial" font-size="16px">document_id</text>
   <rect width="135" height="20" x="1075" y="494" style="fill:none;stroke:black;"/>
   <text width="135" height="20" x="1080" y="508" style="fill:black;" font-family="Arial" font-size="16px">element_type_id</text>
   <rect width="135" height="20" x="1075" y="514" style="fill:none;stroke:black;"/>
   <text width="135" height="20" x="1080" y="528" style="fill:black;" font-family="Arial" font-size="16px">content</text>
   <rect width="135" height="20" x="1075" y="534" style="fill:none;stroke:black;"/>
   <text width="135" height="20" x="1080" y="548" style="fill:black;" font-family="Arial" font-size="16px">rank</text>
   <rect width="135" height="20" x="1075" y="554" style="fill:none;stroke:black;"/>
   <text width="135" height="20" x="1080" y="568" style="fill:black;" font-family="Arial" font-size="16px">parent_element_id</text>
   <rect width="99" height="20" x="1390" y="484" style="fill:#007;stroke:black;"/>
   <text width="99" height="20" x="1395" y="498" style="fill:#fff;" font-family="Arial" font-size="16px"> element_type</text>
   <rect width="99" height="20" x="1390" y="504" style="fill:#aea;stroke:black;"/>
   <text width="99" height="20" x="1395" y="518" style="fill:black;" font-family="Arial" font-size="16px">id</text>
   <rect width="99" height="20" x="1390" y="524" style="fill:none;stroke:black;"/>
   <text width="99" height="20" x="1395" y="538" style="fill:black;" font-family="Arial" font-size="16px">name</text>
   <rect width="121" height="20" x="1386" y="295" style="fill:#007;stroke:black;"/>
   <text width="121" height="20" x="1391" y="309" style="fill:#fff;" font-family="Arial" font-size="16px"> link</text>
   <rect width="121" height="20" x="1386" y="315" style="fill:#aea;stroke:black;"/>
   <text width="121" height="20" x="1391" y="329" style="fill:black;" font-family="Arial" font-size="16px">id</text>
   <rect width="121" height="20" x="1386" y="335" style="fill:none;stroke:black;"/>
   <text width="121" height="20" x="1391" y="349" style="fill:black;" font-family="Arial" font-size="16px">from_element_id</text>
   <rect width="121" height="20" x="1386" y="355" style="fill:none;stroke:black;"/>
   <text width="121" height="20" x="1391" y="369" style="fill:black;" font-family="Arial" font-size="16px">to_element_id</text>
   <rect width="121" height="20" x="1386" y="375" style="fill:none;stroke:black;"/>
   <text width="121" height="20" x="1391" y="389" style="fill:black;" font-family="Arial" font-size="16px">link_type_id</text>
   <rect width="64" height="20" x="1373" y="174" style="fill:#007;stroke:black;"/>
   <text width="64" height="20" x="1378" y="188" style="fill:#fff;" font-family="Arial" font-size="16px"> link_type</text>
   <rect width="64" height="20" x="1373" y="194" style="fill:#aea;stroke:black;"/>
   <text width="64" height="20" x="1378" y="208" style="fill:black;" font-family="Arial" font-size="16px">id</text>
   <rect width="64" height="20" x="1373" y="214" style="fill:none;stroke:black;"/>
   <text width="64" height="20" x="1378" y="228" style="fill:black;" font-family="Arial" font-size="16px">name</text>
   <rect width="98" height="20" x="793" y="512" style="fill:#007;stroke:black;"/>
   <text width="98" height="20" x="798" y="526" style="fill:#fff;" font-family="Arial" font-size="16px"> reviewer</text>
   <rect width="98" height="20" x="793" y="532" style="fill:#aea;stroke:black;"/>
   <text width="98" height="20" x="798" y="546" style="fill:black;" font-family="Arial" font-size="16px">document_id</text>
   <rect width="98" height="20" x="793" y="552" style="fill:#aea;stroke:black;"/>
   <text width="98" height="20" x="798" y="566" style="fill:black;" font-family="Arial" font-size="16px">user_id</text>
   <rect width="118" height="20" x="1101" y="139" style="fill:#007;stroke:black;"/>
   <text width="118" height="20" x="1106" y="153" style="fill:#fff;" font-family="Arial" font-size="16px"> user</text>
   <rect width="118" height="20" x="1101" y="159" style="fill:#aea;stroke:black;"/>
   <text width="118" height="20" x="1106" y="173" style="fill:black;" font-family="Arial" font-size="16px">id</text>
   <rect width="118" height="20" x="1101" y="179" style="fill:none;stroke:black;"/>
   <text width="118" height="20" x="1106" y="193" style="fill:black;" font-family="Arial" font-size="16px">email</text>
   <rect width="118" height="20" x="1101" y="199" style="fill:none;stroke:black;"/>
   <text width="118" height="20" x="1106" y="213" style="fill:black;" font-family="Arial" font-size="16px">name</text>
   <rect width="118" height="20" x="1101" y="219" style="fill:none;stroke:black;"/>
   <text width="118" height="20" x="1106" y="233" style="fill:black;" font-family="Arial" font-size="16px">surname</text>
   <rect width="118" height="20" x="1101" y="239" style="fill:none;stroke:black;"/>
   <text width="118" height="20" x="1106" y="253" style="fill:black;" font-family="Arial" font-size="16px">department</text>
   <rect width="118" height="20" x="1101" y="259" style="fill:none;stroke:black;"/>
   <text width="118" height="20" x="1106" y="273" style="fill:black;" font-family="Arial" font-size="16px">password_hash</text>
   <rect width="118" height="20" x="1101" y="279" style="fill:none;stroke:black;"/>
   <text width="118" height="20" x="1106" y="293" style="fill:black;" font-family="Arial" font-size="16px">password_salt</text>
   <rect width="104" height="20" x="799" y="28" style="fill:#007;stroke:black;"/>
   <text width="104" height="20" x="804" y="42" style="fill:#fff;" font-family="Arial" font-size="16px"> workspace</text>
   <rect width="104" height="20" x="799" y="48" style="fill:#aea;stroke:black;"/>
   <text width="104" height="20" x="804" y="62" style="fill:black;" font-family="Arial" font-size="16px">id</text>
   <rect width="104" height="20" x="799" y="68" style="fill:none;stroke:black;"/>
   <text width="104" height="20" x="804" y="82" style="fill:black;" font-family="Arial" font-size="16px">name</text>
   <rect width="104" height="20" x="799" y="88" style="fill:none;stroke:black;"/>
   <text width="104" height="20" x="804" y="102" style="fill:black;" font-family="Arial" font-size="16px">workspace_id</text>
   <rect width="181" height="20" x="457" y="32" style="fill:#007;stroke:black;"/>
   <text width="181" height="20" x="462" y="46" style="fill:#fff;" font-family="Arial" font-size="16px"> workspace_accessgroup</text>
   <rect width="181" height="20" x="457" y="52" style="fill:#aea;stroke:black;"/>
   <text width="181" height="20" x="462" y="66" style="fill:black;" font-family="Arial" font-size="16px">workspace_id</text>
   <rect width="181" height="20" x="457" y="72" style="fill:#aea;stroke:black;"/>
   <text width="181" height="20" x="462" y="86" style="fill:black;" font-family="Arial" font-size="16px">accessgroup_id</text>
   <rect width="181" height="20" x="457" y="92" style="fill:none;stroke:black;"/>
   <text width="181" height="20" x="462" y="106" style="fill:black;" font-family="Arial" font-size="16px">permissions</text>
   <rect width="118" height="20" x="1079" y="25" style="fill:#007;stroke:black;"/>
   <text width="118" height="20" x="1084" y="39" style="fill:#fff;" font-family="Arial" font-size="16px"> workspace_user</text>
   <rect width="118" height="20" x="1079" y="45" style="fill:#aea;stroke:black;"/>
   <text width="118" height="20" x="1084" y="59" style="fill:black;" font-family="Arial" font-size="16px">workspace_id</text>
   <rect width="118" height="20" x="1079" y="65" style="fill:#aea;stroke:black;"/>
   <text width="118" height="20" x="1084" y="79" style="fill:black;" font-family="Arial" font-size="16px">user_id</text>
   <rect width="118" height="20" x="1079" y="85" style="fill:none;stroke:black;"/>
   <text width="118" height="20" x="1084" y="99" style="fill:black;" font-family="Arial" font-size="16px">permissions</text>
</svg>
